<?xml version="1.0" encoding="UTF-8"?>
<svg id="Layer_1" xmlns="http://www.w3.org/2000/svg" version="1.1" viewBox="0 0 13.5 23.5">
  <!-- Generator: Adobe Illustrator 29.0.0, SVG Export Plug-In . SVG Version: 2.1.0 Build 186)  -->
  <path d="M13.2,7.1c0-4.6-1.8-7.1-6.3-7.1S.4,2.5.4,7.2v.7h4.7v-.8c0-2,.5-2.8,1.8-2.8s1.6.5,1.6,2.1c0,4-8.5,3.2-8.5,11.2s2,5.8,4.5,5.8,3.2-.9,4-2.9c0,.6.2,2,.9,2.6h4.1c-.4-1.2-.4-2-.4-3.4V7.1ZM8.5,17.7c-.3.5-.9,1.4-2,1.4s-1.8-.8-1.8-2.3c0-2.7,2.8-3.5,3.8-5.2v6.1Z"/>
</svg>